<svg xmlns="http://www.w3.org/2000/svg" width="43.128" height="49.747" viewBox="0 0 43.128 49.747">
    <defs>
        <style>
            .cls-1,.cls-2{fill:#b40c04;fill-rule:evenodd}.cls-2{fill:#b80c04}
        </style>
    </defs>
    <g id="svgg" transform="translate(-.003)">
        <path id="path0" d="M39.873.085c-.014.081-.2.309-.246.309a.277.277 0 0 0-.083.047 1.336 1.336 0 0 1-.144.088c-.043.022-.078.048-.078.056S39.311.6 39.294.6a.1.1 0 0 0-.058.026.818.818 0 0 1-.128.074.872.872 0 0 0-.124.073.655.655 0 0 1-.106.062 1.534 1.534 0 0 0-.145.083 1.417 1.417 0 0 1-.176.108.248.248 0 0 0-.058.041.1.1 0 0 1-.057.027c-.016 0-.03.009-.03.021a.022.022 0 0 1-.022.021.277.277 0 0 0-.09.052.34.34 0 0 1-.082.052.087.087 0 0 0-.039.022c-.014.012-.1.07-.191.128a1.26 1.26 0 0 0-.173.124.031.031 0 0 1-.027.017 1.227 1.227 0 0 0-.187.119c-.092.066-.2.142-.243.169a.345.345 0 0 0-.083.067.04.04 0 0 1-.036.018c-.016 0-.029.007-.029.016s-.026.032-.057.051a1.183 1.183 0 0 0-.109.076c-.029.023-.136.1-.238.178s-.2.149-.22.164l-.176.138c-.172.133-.326.254-.34.269s-.052.043-.1.082a1.549 1.549 0 0 0-.143.122.181.181 0 0 1-.062.048.484.484 0 0 0-.1.078l-.184.16-.12.1-.121.1c-.054.044-.11.09-.125.1s-.092.081-.171.148-.16.138-.179.156-.087.079-.153.136-.15.132-.187.166a31.25 31.25 0 0 1-.435.386c-.068.06-.149.133-.179.162s-.132.123-.226.208-.238.218-.318.3a1.1 1.1 0 0 1-.164.14c-.009 0-.011.009 0 .021s0 .021-.009.021c-.037 0-.914.86-1.577 1.547a37.792 37.792 0 0 0-1.181 1.267c-.04.043-.114.127-.166.187s-.119.136-.15.168a.327.327 0 0 0-.057.069.336.336 0 0 1-.057.07 1.926 1.926 0 0 0-.212.248.272.272 0 0 1-.057.069c-.031.031-.071.074-.088.1s-.323.392-.412.5a6.266 6.266 0 0 0-.108.135 2.406 2.406 0 0 1-.165.2c-.018.019-.078.094-.134.168s-.107.139-.114.145-.04.048-.073.093-.066.088-.073.093-.053.066-.1.134a2.574 2.574 0 0 1-.18.229.1.1 0 0 0-.026.039.967.967 0 0 1-.1.131c-.138.173-.139.174-.194.254a.525.525 0 0 1-.072.088c-.012.008-.013.015 0 .016s.005.012-.012.026c-.033.027-.274.35-.526.706-.079.112-.178.247-.219.3s-.138.191-.216.3-.147.212-.155.218a.74.74 0 0 0-.072.1c-.032.051-.085.128-.119.171s-.053.078-.044.078 0 .01-.019.022-.036.031-.036.042a.1.1 0 0 1-.026.05.588.588 0 0 0-.1.133 1.461 1.461 0 0 1-.091.135 2.892 2.892 0 0 0-.091.127l-.108.159a.488.488 0 0 0-.071.119c.006 0 0 .014-.016.03l-.049.057c-.031.038-.309.458-.319.482a.189.189 0 0 1-.027.041c-.032.037-.491.746-.5.768a.212.212 0 0 1-.037.058.95.95 0 0 0-.073.107c-.083.141-.247.4-.26.405a.426.426 0 0 0-.053.083 1.524 1.524 0 0 1-.085.138.4.4 0 0 0-.047.075 1.244 1.244 0 0 1-.083.134.686.686 0 0 0-.083.147c0 .013-.007.023-.016.023s-.034.035-.056.078a1.31 1.31 0 0 1-.085.14c-.025.034-.063.1-.085.135s-.074.125-.117.19a.946.946 0 0 0-.077.131.368.368 0 0 1-.052.081.348.348 0 0 0-.052.082 2.148 2.148 0 0 1-.115.205l-.134.223c-.052.087-.158.259-.186.3-.05.077-.166.278-.166.288a1.263 1.263 0 0 1-.079.13c-.044.066-.086.135-.094.152s-.042.078-.076.135a1.3 1.3 0 0 0-.074.14c-.007.02-.02.036-.03.036s-.023.019-.031.043a2.673 2.673 0 0 1-.137.253 2.576 2.576 0 0 0-.128.232.063.063 0 0 1-.016.032 3.742 3.742 0 0 0-.192.332 8.31 8.31 0 0 1-.116.218c-.334.615-.906 1.729-.912 1.777a1.238 1.238 0 0 1-.063.135c-.078.152-.333.688-.333.7s-.02.054-.156.351a1.157 1.157 0 0 0-.06.151.112.112 0 0 1-.029.052.1.1 0 0 0-.025.061.061.061 0 0 1-.018.047.372.372 0 0 0-.053.11 2.517 2.517 0 0 1-.063.161l-.082.18a.7.7 0 0 0-.054.146.086.086 0 0 1-.017.048c-.017.02-.155.367-.288.724-.017.046-.04.1-.051.122a.365.365 0 0 0-.028.073c0 .019-.027.085-.051.148s-.061.165-.082.228-.068.193-.1.29-.073.2-.083.238a2.587 2.587 0 0 1-.087.249.54.54 0 0 0-.027.083c0 .023-.031.107-.059.186a5.75 5.75 0 0 0-.139.451.879.879 0 0 1-.033.1 1.907 1.907 0 0 0-.04.126 2.754 2.754 0 0 1-.073.235c-.009.024-.032.108-.051.187s-.048.187-.064.241a4.134 4.134 0 0 0-.113.42 3.173 3.173 0 0 1-.043.186c-.02.071-.069.3-.112.529-.067.357-.08.428-.085.48 0 .03-.015.119-.027.2a18.925 18.925 0 0 0 0 4.681c.012.068.024.171.029.228s.017.16.029.228.027.18.033.249a2.018 2.018 0 0 0 .03.2.2.2 0 0 1 .008.086 4.156 4.156 0 0 0 .086.552l.054.29c.013.074.036.181.051.238l.062.238c.019.074.043.156.053.182a.292.292 0 0 1 .019.088.194.194 0 0 0 .019.077 2.012 2.012 0 0 1 .1.315.117.117 0 0 0 .034.067c.014.009.018.016.01.016a3.772 3.772 0 0 0 .233.674l.057.135.09.207c.1.236.538 1.082.591 1.142a.113.113 0 0 1 .029.057.023.023 0 0 0 .021.024.022.022 0 0 1 .021.022.57.57 0 0 0 .069.13c.038.059.1.152.13.206.054.089.272.408.315.461.009.011.049.067.087.124a1.262 1.262 0 0 0 .083.114 1.3 1.3 0 0 1 .083.109.363.363 0 0 0 .087.1.019.019 0 0 1 .017.021c0 .019.03.058.135.178.023.026.069.082.1.124s.081.1.1.121a.927.927 0 0 1 .078.1 17.936 17.936 0 0 0 1.372 1.378c.079.068.164.143.188.166s.084.074.133.114l.233.192c.079.066.168.136.2.155a.931.931 0 0 1 .1.077 2.637 2.637 0 0 0 .265.208l.186.138a1.411 1.411 0 0 0 .237.162.03.03 0 0 1 .026.017.938.938 0 0 0 .142.109 1.029 1.029 0 0 1 .142.107.032.032 0 0 0 .028.016.888.888 0 0 1 .221.15.031.031 0 0 0 .027.016.087.087 0 0 1 .045.022c.023.02.364.242.468.3a.107.107 0 0 0 .052.021s.026.01.047.029.164.11.318.2l.311.187c.07.043.427.244.456.257s.078.041.135.073.174.1.259.139a1.877 1.877 0 0 1 .166.092c.019.021.822.413.846.413s.024.007.024.016a.255.255 0 0 0 .1.055c.054.022.164.072.243.11s.213.1.3.131.166.069.186.08c.058.031.28.13.3.135a1.693 1.693 0 0 1 .209.082c.111.051.205.09.3.126l.456.176c.063.024.165.062.228.083s.193.068.29.1c.206.076 1.149.39 1.212.4.023 0 .145.042.271.083s.3.093.381.115c.146.038.193.052.367.1a1.169 1.169 0 0 0 .119.03c.025 0 .115.027.2.052s.17.048.187.051c.116.025.365.09.56.145.051.015.149.038.218.052s.168.038.222.054a.7.7 0 0 0 .149.029.335.335 0 0 1 .1.018c.043.017.13.037.5.116a28.343 28.343 0 0 0 1.461.27c.085.016.225.039.311.052l.28.045c.068.012.162.025.207.03s.13.017.186.029.146.025.2.031c.114.012.391.047.6.075.088.012.214.026.28.031s.214.023.328.039.3.039.415.052.305.036.425.052l.4.053a4.629 4.629 0 0 1 1.185.293.6.6 0 0 0 .1.038.149.149 0 0 1 .052.037 1.174 1.174 0 0 0 .741.149h.368l.074-.067c.182-.164.257-.424.148-.516a.72.72 0 0 0-.212-.11c0 .006-.035-.009-.077-.031a.383.383 0 0 0-.1-.042 1.163 1.163 0 0 1-.156-.045 2.226 2.226 0 0 0-.164-.049.333.333 0 0 1-.062-.017 9.716 9.716 0 0 0-.4-.128c-.068-.02-.143-.043-.166-.052s-.125-.042-.228-.073-.294-.091-.425-.134l-.518-.165c-.154-.048-.308-.1-.342-.111a.532.532 0 0 0-.073-.024 2.227 2.227 0 0 1-.249-.078 1.079 1.079 0 0 0-.114-.037 2.224 2.224 0 0 1-.135-.042c-.207-.073-.3-.1-.332-.113a5.632 5.632 0 0 1-.363-.126 3.953 3.953 0 0 0-.228-.079c-.13-.04-.359-.12-.508-.178a8.38 8.38 0 0 0-.166-.062l-.228-.082a8.946 8.946 0 0 1-.269-.1 1.047 1.047 0 0 1-.13-.051 1.062 1.062 0 0 0-.135-.052 3.586 3.586 0 0 1-.243-.091l-.477-.19a.862.862 0 0 0-.084-.029 1.452 1.452 0 0 1-.135-.056 4.375 4.375 0 0 0-.2-.085 39.776 39.776 0 0 1-.631-.266l-.136-.059-.166-.074-.2-.086a1.25 1.25 0 0 1-.124-.058.289.289 0 0 0-.062-.027c-.006 0-.085-.035-.176-.079s-.171-.08-.176-.081-.657-.314-.711-.344l-.166-.083c-.157-.076-.162-.079-.309-.16a.6.6 0 0 0-.15-.066c-.018 0-.032-.007-.032-.016s-.03-.031-.067-.049c-.1-.049-.438-.227-.461-.245s-.114-.065-.228-.125-.221-.121-.238-.135a.244.244 0 0 0-.053-.033c-.021-.008-.353-.2-.649-.382a1.128 1.128 0 0 0-.171-.092.018.018 0 0 1-.019-.016.289.289 0 0 0-.1-.067.8.8 0 0 1-.109-.064 1.046 1.046 0 0 0-.194-.1s-.014 0-.021-.012a.536.536 0 0 0-.167-.111.022.022 0 0 1-.022-.022c0-.012-.008-.017-.017-.012s-.03-.008-.046-.03-.035-.04-.043-.04-.147-.089-.485-.319a.9.9 0 0 1-.131-.1.042.042 0 0 0-.036-.016c-.016 0-.029-.007-.029-.016s-.03-.034-.067-.056a2.12 2.12 0 0 1-.3-.224.042.042 0 0 0-.036-.016c-.016 0-.029-.007-.029-.016a.251.251 0 0 0-.083-.067.252.252 0 0 1-.083-.067c0-.009-.014-.016-.031-.016s-.031-.008-.031-.017a.363.363 0 0 0-.1-.087c-.054-.039-.109-.08-.121-.092s-.054-.045-.091-.073l-.1-.078a.088.088 0 0 0-.047-.026.031.031 0 0 1-.027-.016c0-.009-.108-.1-.232-.2s-.242-.2-.263-.217-.05-.043-.065-.054c-.052-.039-.3-.246-.317-.269s-.081-.073-.154-.136-.158-.137-.188-.166l-.178-.163c-.509-.46-1.242-1.19-1.489-1.485-.058-.068-.124-.143-.147-.166s-.105-.116-.182-.207l-.167-.2c-.015-.017-.059-.073-.1-.124s-.076-.1-.082-.1-.052-.066-.1-.135-.1-.129-.1-.135a.776.776 0 0 1-.063-.083 1.328 1.328 0 0 0-.087-.113.258.258 0 0 1-.049-.078c-.007-.021-.021-.038-.031-.038a.021.021 0 0 1-.019-.022.089.089 0 0 0-.022-.047c-.012-.014-.077-.109-.145-.212s-.133-.2-.144-.212a.09.09 0 0 1-.021-.037 1.442 1.442 0 0 0-.124-.2.735.735 0 0 1-.051-.093 20.903 20.903 0 0 1-.704-1.359.672.672 0 0 0-.07-.13c-.017-.02-.024-.036-.016-.036s0-.026-.015-.057a3.209 3.209 0 0 1-.118-.264 2.12 2.12 0 0 0-.051-.114 1.152 1.152 0 0 1-.052-.135.341.341 0 0 0-.04-.093.289.289 0 0 1-.037-.083 5.13 5.13 0 0 0-.151-.4c-.011-.023-.048-.127-.082-.231s-.07-.212-.081-.238-.045-.132-.076-.235-.065-.21-.075-.238c-.019-.053-.1-.357-.152-.56a28.68 28.68 0 0 1-.164-.684l-.023-.135a24.412 24.412 0 0 0-.042-.228 7.622 7.622 0 0 1-.133-.87 56.692 56.692 0 0 1-.04-.342 13.4 13.4 0 0 1 .112-3.524l.038-.259a3.75 3.75 0 0 1 .032-.186l.046-.238c.012-.063.034-.175.05-.249l.041-.2a.94.94 0 0 1 .037-.155c.006-.017.032-.115.057-.218l.063-.259.038-.167a1.171 1.171 0 0 1 .041-.145c.011-.028.041-.121.066-.206.109-.375.323-1.021.365-1.1a.25.25 0 0 0 .028-.087.415.415 0 0 1 .034-.111c.019-.043.041-.1.049-.12l.05-.122a.179.179 0 0 0 .024-.091c-.006-.006 0-.021.007-.034a2.043 2.043 0 0 0 .094-.22c.08-.207.1-.261.147-.363.015-.034.039-.1.054-.145a.621.621 0 0 1 .041-.1c.008-.011.085-.192.172-.4s.166-.4.176-.415.041-.086.069-.149l.1-.218c.073-.161.285-.6.375-.783a1.045 1.045 0 0 0 .081-.19.04.04 0 0 1 .016-.035 2.07 2.07 0 0 0 .14-.256c.068-.137.128-.253.134-.259s.049-.085.1-.176c.173-.338.268-.518.279-.528a.837.837 0 0 0 .061-.1l.107-.2.079-.145c.012-.023.049-.088.083-.145s.069-.118.077-.135.073-.13.145-.251a1.792 1.792 0 0 0 .131-.243c0-.013.007-.024.017-.024s.038-.04.063-.088c.058-.109.038-.077.387-.647.16-.261.288-.482.285-.492s0-.017.014-.017.032-.023.047-.051c.035-.066.4-.636.446-.707a.946.946 0 0 0 .082-.134.138.138 0 0 1 .027-.041c.016-.013.3-.437.309-.466a.091.091 0 0 1 .021-.031c.007-.006.052-.071.1-.145.122-.186.128-.2.228-.333a.7.7 0 0 0 .088-.143.021.021 0 0 1 .021-.021c.011 0 .021-.014.021-.031s.009-.031.019-.031.025-.019.032-.041a.2.2 0 0 1 .04-.068 6.94 6.94 0 0 0 .406-.575.02.02 0 0 1 .019-.02c.011 0 .04-.037.066-.083s.054-.083.063-.083.017-.013.017-.029a.042.042 0 0 1 .016-.036.767.767 0 0 0 .141-.183c-.007 0 0-.018.024-.04a1.494 1.494 0 0 0 .15-.193c.033-.049.085-.117.115-.151a.976.976 0 0 0 .088-.119c.019-.031.041-.057.05-.057s.016-.013.016-.029a.041.041 0 0 1 .017-.036.921.921 0 0 0 .109-.131c.051-.068.107-.143.126-.166.128-.158.391-.492.441-.561a1.021 1.021 0 0 1 .083-.1 1.389 1.389 0 0 0 .086-.117c.04-.051.1-.126.139-.166a.344.344 0 0 0 .068-.09.088.088 0 0 1 .031-.044c.048-.048.212-.245.229-.274a.546.546 0 0 1 .062-.076c.044-.046.148-.165.231-.266.129-.156.27-.32.281-.329s.058-.062.113-.124c.24-.276.295-.339.353-.4l.153-.17c.116-.13.277-.3.614-.661l.373-.4c.057-.062.472-.482.922-.934s.816-.829.814-.838 0-.016.015-.016a1.041 1.041 0 0 0 .174-.15c.084-.083.287-.276.45-.43.411-.388.606-.573.732-.694.059-.057.224-.211.366-.342l.312-.29.28-.259c.249-.228.409-.376.525-.487.042-.04.164-.152.271-.249s.238-.218.292-.269.18-.168.281-.259.242-.224.316-.3a1.909 1.909 0 0 1 .14-.13c.008 0 .261-.236.45-.42a1.209 1.209 0 0 1 .133-.119c.033 0 1.021-.991 1.021-1.024a.151.151 0 0 1 .036-.051.418.418 0 0 0 .109-.149.019.019 0 0 1 .018-.02 3.745 3.745 0 0 0 .473-.85 3.091 3.091 0 0 0 .194-.7 3.328 3.328 0 0 0-.626-.02h-.62l-.014.085M1.12 6.238c-.255.047-.682.39-.682.548a.054.054 0 0 1-.019.042.429.429 0 0 0-.054.131l-.054.181a.277.277 0 0 0-.011.073.159.159 0 0 1-.022.059 3.571 3.571 0 0 0-.161.61.18.18 0 0 1-.029.089.088.088 0 0 0-.019.063.211.211 0 0 1-.031.1A6.411 6.411 0 0 0 .061 9.6c.1.442.11.51.137.612s.064.26.083.352c.028.136.126.494.173.632.016.047.02.06.064.228a3.507 3.507 0 0 0 .117.373l.089.269c.035.108.092.276.128.373s.082.227.1.29a4.578 4.578 0 0 0 .168.438.305.305 0 0 1 .031.08 5.525 5.525 0 0 0 .212.518c.029.063.054.119.055.124a.325.325 0 0 0 .024.052.915.915 0 0 1 .049.124 1.147 1.147 0 0 0 .052.135c.014.028.045.094.067.145s.076.168.118.259l.125.269c.131.283.264.564.285.6.034.061.063.119.2.394.066.137.125.253.131.259a.688.688 0 0 1 .051.1.776.776 0 0 0 .064.124.743.743 0 0 1 .062.119c.021.048.045.088.055.088s.017.017.017.037a.1.1 0 0 0 .019.057c.01.011.077.132.147.268s.155.3.187.352.092.169.134.249c.155.3.229.436.241.446a.4.4 0 0 1 .043.073c.017.034.072.137.122.228s.109.2.13.244.048.078.059.078.015.008.009.017.011.049.037.088a1.358 1.358 0 0 1 .086.154c.032.069.131.245.216.384.011.017.049.089.086.161a.439.439 0 0 0 .084.13c.009 0 .017.017.017.039a.1.1 0 0 0 .031.065.084.084 0 0 1 .031.044 1.522 1.522 0 0 0 .144.247 1.193 1.193 0 0 1 .071.124c.058.11.263.463.36.619.026.042.056.094.068.117s.039.07.062.1a.585.585 0 0 1 .054.1c.007.02.02.036.029.036s.022.023.029.052.022.052.033.052.02.013.02.028a.122.122 0 0 0 .042.066c.023.021.037.042.031.048s.013.041.041.078a.278.278 0 0 1 .052.09.021.021 0 0 0 .021.022c.011 0 .021.013.021.03a.1.1 0 0 0 .026.058.547.547 0 0 1 .051.069c.116.188.371.588.4.624s.045.062.059.083l.157.236a3.251 3.251 0 0 0 .289.411.031.031 0 0 1 .016.027.089.089 0 0 0 .021.045c.025.03.164.221.207.285.063.092.323.446.357.486.02.023.094.121.166.218.153.208.365.478.4.507a1.357 1.357 0 0 1 .095.114 1.583 1.583 0 0 0 .119.139.162.162 0 0 1 .047.066.031.031 0 0 0 .016.027 1.664 1.664 0 0 1 .139.152c.068.08.149.173.18.207.091.1.125.139.257.291l.163.186c.021.023.105.121.186.218s.166.195.189.218.083.093.134.155l.124.148.087.1.146.184c.05.063.146.189.214.28a3.355 3.355 0 0 0 .324.4.03.03 0 0 1 .018.026.605.605 0 0 0 .13.168.154.154 0 0 1 .036.05.1.1 0 0 0 .026.039l.1.116c.174.214.534.639.613.725a19.464 19.464 0 0 0 1.245 1.281l.216.2a5 5 0 0 0 .4.343.447.447 0 0 1 .078.062c.128.119.162.148.174.148a.153.153 0 0 1 .051.036 5.59 5.59 0 0 0 .5.378c.025.017.123.089.218.161a1.182 1.182 0 0 0 .2.13.021.021 0 0 1 .023.017c0 .009.026.03.057.047a2.931 2.931 0 0 1 .319.226.215.215 0 0 0 .076.042.032.032 0 0 1 .028.016 1.544 1.544 0 0 0 .283.191.188.188 0 0 1 .067.043 2.422 2.422 0 0 0 .232.15l.25.147c.132.078.59.3.632.313a.349.349 0 0 1 .081.028.682.682 0 0 0 .759-.178 1.068 1.068 0 0 0 .11-.754c-.016-.05-.04-.132-.053-.183s-.037-.126-.052-.166a49.87 49.87 0 0 1-.248-.746c0-.017-.029-.082-.053-.145s-.061-.165-.083-.228a8.99 8.99 0 0 0-.168-.456c-.114-.259-.289-.7-.288-.72S16 28.9 15.989 28.9a.273.273 0 0 1-.054-.108 3.852 3.852 0 0 0-.111-.264l-.115-.25c-.023-.051-.125-.263-.226-.471s-.184-.387-.184-.4a.031.031 0 0 0-.016-.027 2.464 2.464 0 0 1-.149-.276 2.276 2.276 0 0 0-.15-.276c-.009 0-.017-.024-.017-.045s-.007-.041-.016-.045a1.706 1.706 0 0 1-.125-.225c-.141-.28-.3-.582-.325-.622a.216.216 0 0 1-.023-.041 2.859 2.859 0 0 0-.155-.3c-.045-.08-.11-.2-.145-.269-.07-.138-.243-.465-.355-.674l-.123-.228a.427.427 0 0 0-.066-.1c-.009 0-.016-.023-.016-.042a.092.092 0 0 0-.019-.055 4.394 4.394 0 0 1-.23-.413 2.261 2.261 0 0 0-.168-.3.538.538 0 0 1-.051-.093 14.88 14.88 0 0 0-.387-.715c-.064-.123-.2-.367-.246-.446-.02-.034-.056-.1-.079-.145l-.1-.187c-.03-.057-.081-.141-.1-.187s-.06-.112-.081-.147-.073-.129-.116-.207a.838.838 0 0 0-.1-.158c-.013-.008-.016-.015-.008-.016s-.006-.035-.033-.078-.077-.129-.11-.192a1.975 1.975 0 0 0-.131-.228 2.743 2.743 0 0 1-.093-.171.678.678 0 0 0-.1-.161.019.019 0 0 1-.016-.02 5.522 5.522 0 0 0-.267-.487l-.106-.186a4.876 4.876 0 0 0-.122-.207.511.511 0 0 1-.058-.112.074.074 0 0 0-.022-.041.76.76 0 0 1-.077-.126 1.184 1.184 0 0 0-.088-.147.114.114 0 0 1-.028-.054.082.082 0 0 0-.031-.047c-.017-.014-.026-.033-.021-.042s0-.028-.021-.042a.086.086 0 0 1-.031-.054c0-.016-.009-.029-.021-.029a.021.021 0 0 1-.021-.021 1.94 1.94 0 0 0-.13-.24 10.041 10.041 0 0 1-.257-.444c-.008-.017-.058-.1-.11-.187l-.111-.187a8.706 8.706 0 0 0-.411-.68.042.042 0 0 1-.018-.038.255.255 0 0 0-.047-.1 1.868 1.868 0 0 1-.141-.232c-.025-.046-.075-.13-.112-.187s-.135-.216-.219-.352a3.661 3.661 0 0 0-.316-.484c-.009 0-.011-.016 0-.026s0-.019-.01-.019a.021.021 0 0 1-.022-.02 1.419 1.419 0 0 0-.115-.2l-.14-.223a.366.366 0 0 0-.036-.052 4.713 4.713 0 0 1-.132-.207 1.47 1.47 0 0 0-.139-.2.04.04 0 0 1-.018-.036c0-.016-.01-.029-.022-.029s-.016-.009-.009-.021 0-.021-.009-.021a.021.021 0 0 1-.022-.019 2.793 2.793 0 0 0-.2-.324 1.256 1.256 0 0 1-.057-.093.719.719 0 0 0-.062-.1 3.63 3.63 0 0 1-.136-.205C7.4 13.6 7 12.98 6.974 12.944a.868.868 0 0 1-.083-.134.154.154 0 0 0-.026-.041 1.708 1.708 0 0 1-.086-.124l-.251-.384c-.1-.148-.2-.311-.235-.363a.709.709 0 0 0-.072-.1.387.387 0 0 1-.052-.083 1.494 1.494 0 0 0-.1-.155c-.1-.141-.328-.493-.328-.51s-.016-.025-.036-.037-.034-.025-.031-.032a3.285 3.285 0 0 0-.245-.4.444.444 0 0 1-.06-.109.02.02 0 0 0-.019-.02c-.011 0-.025-.017-.031-.037a2.084 2.084 0 0 0-.2-.319.209.209 0 0 1-.043-.078.022.022 0 0 0-.021-.023.021.021 0 0 1-.015-.025.876.876 0 0 0-.092-.161 2.157 2.157 0 0 1-.117-.2c-.014-.031-.034-.057-.043-.057s-.017-.011-.017-.024a.252.252 0 0 0-.049-.088.466.466 0 0 1-.064-.111c-.008-.026-.023-.047-.034-.047a.02.02 0 0 1-.024-.017.433.433 0 0 0-.057-.109c-.031-.048-.068-.111-.082-.139s-.081-.136-.15-.238-.145-.226-.171-.275-.054-.088-.063-.088a.018.018 0 0 1-.017-.02 5.067 5.067 0 0 0-.284-.447c-.009-.011-.04-.053-.068-.093l-.082-.113c-.053-.069-.6-.612-.621-.612a.2.2 0 0 1-.066-.044 1 1 0 0 0-.1-.077c-.028-.018-.091-.065-.14-.1s-.088-.062-.088-.052-.007.008-.016 0a2.886 2.886 0 0 0-.348-.232c-.022-.014-.078-.045-.124-.068s-.13-.07-.187-.1a1.092 1.092 0 0 0-.821-.207M14.865 12a2.03 2.03 0 0 0-.942.318 2.453 2.453 0 0 0-.571.489.022.022 0 0 1-.021.023c-.011 0-.047.037-.08.082s-.1.125-.14.178a.5.5 0 0 0-.081.116.05.05 0 0 1-.022.034 3.484 3.484 0 0 0-.435.8c-.02.06-.047.138-.061.172a1.666 1.666 0 0 0-.086.3c0 .029-.016.1-.026.166a4.59 4.59 0 0 0 0 .831c.011.05.026.129.032.174a2.04 2.04 0 0 0 .136.435 2.315 2.315 0 0 0 .171.339.029.029 0 0 1 .016.024 3.493 3.493 0 0 0 .843.926.912.912 0 0 1 .1.074.137.137 0 0 0 .064.036.121.121 0 0 1 .061.041c.02.023.045.036.055.03s.018 0 .018.006a2.116 2.116 0 0 0 .414.219 4.594 4.594 0 0 0 .62.193 4.2 4.2 0 0 0 1.152 0l.135-.032a3.245 3.245 0 0 0 .663-.241.821.821 0 0 1 .1-.059 1.5 1.5 0 0 0 .135-.076.6.6 0 0 1 .1-.053c.02-.007.036-.019.036-.028s.021-.025.047-.036a2.88 2.88 0 0 0 .447-.379 3.06 3.06 0 0 0 .361-.428c.012-.027.03-.05.04-.05a.02.02 0 0 0 .017-.022.269.269 0 0 1 .049-.088 3.627 3.627 0 0 0 .336-.708.25.25 0 0 1 .014-.052 2.9 2.9 0 0 0 .065-1.61.346.346 0 0 1-.029-.089 3.262 3.262 0 0 0-.427-.763 3.453 3.453 0 0 0-1.407-1.043.512.512 0 0 0-.153-.041s-.014 0-.021-.013a1.681 1.681 0 0 0-.417-.12l-.228-.041a2.737 2.737 0 0 0-.187-.03l-.373-.01c-.188-.005-.421 0-.518.006m1.273 23.676a.45.45 0 0 0-.14.067c-.008.013-.015.017-.016.009 0-.049-.314.236-.426.388a1.832 1.832 0 0 1-.085.108.9.9 0 0 0-.072.1.837.837 0 0 1-.073.1.2.2 0 0 0-.038.067c-.007.023-.021.041-.03.041s-.032.03-.051.067-.062.109-.1.161-.067.107-.075.124a.345.345 0 0 1-.039.062 1.647 1.647 0 0 0-.092.155 7.085 7.085 0 0 1-.1.176.776.776 0 0 0-.051.084.966.966 0 0 1-.04.073l-.174.29a3.42 3.42 0 0 1-.13.228c-.041.068-.082.138-.09.155s-.052.1-.1.176-.112.2-.149.269l-.109.2c-.267.489-.68 1.3-.963 1.892a11.48 11.48 0 0 1-.159.324.246.246 0 0 0-.03.088c0 .018-.009.033-.019.033s-.026.021-.033.047a8.493 8.493 0 0 1-.25.537.246.246 0 0 0-.029.086.09.09 0 0 1-.032.057.055.055 0 0 0-.021.054c.006.015 0 .028-.009.028a.021.021 0 0 0-.02.022 1.377 1.377 0 0 1-.083.193c-.046.094-.083.177-.083.183s-.034.085-.074.175l-.124.272a1.066 1.066 0 0 0-.05.12 1.223 1.223 0 0 1-.053.129l-.07.159a3.42 3.42 0 0 1-.073.164 1.549 1.549 0 0 0-.061.145 2.086 2.086 0 0 1-.1.25c-.026.057-.087.2-.135.321s-.109.264-.135.321-.063.146-.082.2-.047.121-.062.155l-.049.114-.067.155c-.165.374-.365.883-.383.974a.824.824 0 0 1-.038.114.9.9 0 0 0 .514 1.316 2.832 2.832 0 0 0 1.308.22l.89.032a2.7 2.7 0 0 0 .821-.078 1.613 1.613 0 0 0 .386-.1.391.391 0 0 1 .093-.032 2.147 2.147 0 0 0 .236-.088 2.24 2.24 0 0 0 .374-.189c.022-.014.08-.046.129-.071s.088-.054.088-.063a.02.02 0 0 1 .022-.017c.022 0 .05-.02.125-.088a.173.173 0 0 1 .051-.036.492.492 0 0 0 .088-.067c.117-.1.488-.472.474-.472s.015-.027.049-.059a.218.218 0 0 0 .062-.083.022.022 0 0 1 .017-.013c.011 0 .021-.014.021-.031s.009-.031.019-.031a2.673 2.673 0 0 0 .332-.506 5.14 5.14 0 0 0 .416-1.153l.063-.249c.025-.1.048-.2.053-.235a.28.28 0 0 1 .02-.078.609.609 0 0 0 .029-.117c.01-.054.023-.117.029-.14s.03-.125.052-.228c.044-.207.085-.387.134-.591a3.2 3.2 0 0 0 .045-.218.5.5 0 0 1 .022-.1c0-.008.027-.1.05-.2s.045-.2.05-.213.023-.092.041-.166c.058-.247.138-.549.156-.591s.06-.192.075-.259a.4.4 0 0 1 .015-.041 7.409 7.409 0 0 1 .118-.349c.035-.097.073-.2.082-.228a8.04 8.04 0 0 1 .145-.363 1.434 1.434 0 0 0-.032-1.018 2.472 2.472 0 0 0-.152-.319 1.028 1.028 0 0 1-.075-.135c-.034-.068-.1-.18-.136-.249s-.114-.2-.163-.29a1.867 1.867 0 0 0-.118-.2.124.124 0 0 1-.029-.045 3.053 3.053 0 0 0-.184-.327 2.119 2.119 0 0 1-.1-.2 1.165 1.165 0 0 0-.109-.193.036.036 0 0 1-.017-.032.93.93 0 0 0-.074-.169c-.041-.079-.125-.27-.188-.424l-.144-.348a.358.358 0 0 1-.029-.1.365.365 0 0 0-.039-.108.514.514 0 0 1-.041-.1c-.018-.171-.347-.279-.593-.194" class="cls-1"/>
        <path id="path1" d="M171.792 136.427c0 .074 0 .1.008.067a.672.672 0 0 0 0-.135c0-.037-.008-.007-.008.067m3.254 14.9c0 .063 0 .088.009.057a.458.458 0 0 0 0-.114c0-.031-.009-.006-.009.057m0 .363c0 .057 0 .078.009.046a.369.369 0 0 0 0-.1c0-.026-.009 0-.009.057m-3.462 1.42c0 .051 0 .072.009.047a.3.3 0 0 0 0-.093c0-.026-.009 0-.009.047m0 1.078c0 .04 0 .056.009.036a.171.171 0 0 0 0-.073c-.005-.02-.009 0-.009.036" class="cls-2" transform="translate(-153.086 -121.648)"/>
        <path id="path2" d="M171.792 136.427c0 .074 0 .1.008.067a.672.672 0 0 0 0-.135c0-.037-.008-.007-.008.067m3.254 14.9c0 .063 0 .088.009.057a.458.458 0 0 0 0-.114c0-.031-.009-.006-.009.057m0 .363c0 .057 0 .078.009.046a.369.369 0 0 0 0-.1c0-.026-.009 0-.009.057m-3.462 1.42c0 .051 0 .072.009.047a.3.3 0 0 0 0-.093c0-.026-.009 0-.009.047m0 1.078c0 .04 0 .056.009.036a.171.171 0 0 0 0-.073c-.005-.02-.009 0-.009.036" class="cls-2" transform="translate(-153.086 -121.648)"/>
        <path id="path3" d="M171.792 136.427c0 .074 0 .1.008.067a.672.672 0 0 0 0-.135c0-.037-.008-.007-.008.067m3.254 14.9c0 .063 0 .088.009.057a.458.458 0 0 0 0-.114c0-.031-.009-.006-.009.057m0 .363c0 .057 0 .078.009.046a.369.369 0 0 0 0-.1c0-.026-.009 0-.009.057m-3.462 1.42c0 .051 0 .072.009.047a.3.3 0 0 0 0-.093c0-.026-.009 0-.009.047m0 1.078c0 .04 0 .056.009.036a.171.171 0 0 0 0-.073c-.005-.02-.009 0-.009.036" class="cls-2" transform="translate(-153.086 -121.648)"/>
        <path id="path4" d="M171.792 136.427c0 .074 0 .1.008.067a.672.672 0 0 0 0-.135c0-.037-.008-.007-.008.067m3.254 14.9c0 .063 0 .088.009.057a.458.458 0 0 0 0-.114c0-.031-.009-.006-.009.057m0 .363c0 .057 0 .078.009.046a.369.369 0 0 0 0-.1c0-.026-.009 0-.009.057m-3.462 1.42c0 .051 0 .072.009.047a.3.3 0 0 0 0-.093c0-.026-.009 0-.009.047m0 1.078c0 .04 0 .056.009.036a.171.171 0 0 0 0-.073c-.005-.02-.009 0-.009.036" class="cls-2" transform="translate(-153.086 -121.648)"/>
    </g>
</svg>
